<svg width="25" height="25" viewBox="0 0 25 25" fill="none" xmlns="http://www.w3.org/2000/svg">
<g clip-path="url(#clip0_1_190)">
<rect width="24" height="24" transform="translate(0.345947 0.537109)" fill="#1877F2"/>
<path d="M23.8459 12.607C23.8459 6.25571 18.6972 1.10699 12.3459 1.10699C5.99467 1.10699 0.845947 6.25571 0.845947 12.607C0.845947 18.347 5.05133 23.1046 10.5491 23.9673V15.9312H7.62915V12.607H10.5491V10.0734C10.5491 7.19121 12.2659 5.59918 14.8928 5.59918C16.151 5.59918 17.467 5.82379 17.467 5.82379V8.65386H16.0169C14.5883 8.65386 14.1428 9.54033 14.1428 10.4498V12.607H17.3323L16.8224 15.9312H14.1428V23.9673C19.6406 23.1046 23.8459 18.347 23.8459 12.607Z" fill="white"/>
</g>
<defs>
<clipPath id="clip0_1_190">
<rect width="24" height="24" fill="white" transform="translate(0.345947 0.537109)"/>
</clipPath>
</defs>
</svg>
