<svg width="92" height="92" viewBox="0 0 92 92" fill="none" xmlns="http://www.w3.org/2000/svg">
<path d="M22.9499 66.1846H31.4326V45.5837L19.3145 36.4951V62.5492C19.3145 64.5608 20.9443 66.1846 22.9499 66.1846Z" fill="#006FEE"/>
<path d="M60.5156 66.1846H68.9983C71.01 66.1846 72.6338 64.5547 72.6338 62.5492V36.4951L60.5156 45.5837" fill="#006FEE"/>
<path d="M60.5156 29.8303V45.5839L72.6338 36.4953V31.6481C72.6338 27.1522 67.5017 24.5892 63.9087 27.2855" fill="#006FEE"/>
<path d="M31.4336 45.5837V29.8301L45.9754 40.7364L60.5172 29.8301V45.5837L45.9754 56.49" fill="#006FEE"/>
<path d="M19.3145 31.6481V36.4953L31.4326 45.5839V29.8303L28.0395 27.2855C24.4404 24.5892 19.3145 27.1522 19.3145 31.6481Z" fill="#006FEE"/>
</svg>
