<svg width="512" height="512" viewBox="0 0 512 512" fill="none" xmlns="http://www.w3.org/2000/svg">
<g clip-path="url(#clip0_15_2)">
<rect width="512" height="512" fill="white"/>
<path d="M69.2119 -59.0671C-76.8514 -151.627 -79.8057 103.573 -79.8057 103.573L-57.5222 129.379C-57.5222 129.379 215.275 33.4925 69.2119 -59.0671Z" fill="url(#paint0_linear_15_2)"/>
<path d="M563.968 413.261C417.905 320.701 414.95 575.901 414.95 575.901L437.234 601.707C437.234 601.707 710.031 505.82 563.968 413.261Z" fill="url(#paint1_linear_15_2)"/>
<g clip-path="url(#clip1_15_2)">
<path opacity="0.7" d="M167.51 259.224V333.384C167.51 333.616 167.418 333.838 167.254 334.002C167.09 334.166 166.868 334.258 166.636 334.258C166.404 334.258 166.181 334.166 166.018 334.002C165.854 333.838 165.762 333.616 165.762 333.384V259.224C165.763 259.078 165.801 258.933 165.873 258.805L144.065 230.363V339.833H189.206V230.363L167.399 258.805C167.47 258.933 167.508 259.078 167.51 259.224Z" fill="#FD2965"/>
<path opacity="0.7" d="M144.065 214.084V227.49L166.636 256.931L189.206 227.49V214.084H144.065Z" fill="#FD2965"/>
<path opacity="0.7" d="M90.6631 172.167L144.065 256.025L165.761 290.096V259.224C165.763 259.078 165.801 258.933 165.873 258.805L144.065 230.363L103.876 177.939C103.805 177.848 103.753 177.744 103.723 177.633C103.692 177.521 103.684 177.405 103.699 177.291C103.728 177.06 103.848 176.851 104.032 176.708C104.215 176.566 104.448 176.502 104.679 176.531C104.91 176.56 105.12 176.68 105.262 176.864L144.065 227.49L166.636 256.931L189.206 227.49L228.013 176.875C228.083 176.784 228.171 176.707 228.271 176.65C228.371 176.593 228.481 176.556 228.596 176.542C228.71 176.528 228.826 176.536 228.937 176.566C229.048 176.596 229.152 176.648 229.243 176.719C229.334 176.789 229.411 176.877 229.468 176.977C229.525 177.077 229.562 177.188 229.576 177.302C229.591 177.416 229.582 177.532 229.552 177.643C229.522 177.754 229.47 177.859 229.399 177.95L189.206 230.363L167.399 258.805C167.47 258.933 167.508 259.078 167.51 259.224V290.096L189.206 256.025L242.608 172.167H90.6631Z" fill="#6228F1"/>
</g>
<g clip-path="url(#clip2_15_2)">
<path opacity="0.7" d="M295.588 172.167H253.671V224.563H306.067V339.833H368.941V224.563H421.337V172.167H295.588ZM410.858 183.52H317.42V329.354C317.42 329.586 317.328 329.808 317.164 329.972C317 330.136 316.778 330.228 316.546 330.228C316.314 330.228 316.092 330.136 315.928 329.972C315.764 329.808 315.672 329.586 315.672 329.354V183.52H264.15C263.919 183.52 263.696 183.428 263.532 183.264C263.368 183.101 263.276 182.878 263.276 182.646C263.276 182.414 263.368 182.192 263.532 182.028C263.696 181.864 263.919 181.772 264.15 181.772H410.858C411.09 181.772 411.312 181.864 411.476 182.028C411.64 182.192 411.732 182.414 411.732 182.646C411.732 182.878 411.64 183.101 411.476 183.264C411.312 183.428 411.09 183.52 410.858 183.52Z" fill="#FA991A"/>
<path opacity="0.7" d="M317.42 230.384V329.354C317.42 329.586 317.328 329.808 317.164 329.972C317 330.136 316.778 330.228 316.546 330.228C316.314 330.228 316.092 330.136 315.928 329.972C315.764 329.808 315.672 329.586 315.672 329.354V225.727L299.844 183.52H295.588V339.833H358.462L317.42 230.384ZM295.588 172.167V181.772H299.192L295.588 172.167Z" fill="#F9D611"/>
</g>
</g>
<defs>
<linearGradient id="paint0_linear_15_2" x1="57.4857" y1="159.873" x2="-25.5488" y2="-13.7476" gradientUnits="userSpaceOnUse">
<stop stop-color="#FA709A"/>
<stop offset="1" stop-color="#FFE13F"/>
</linearGradient>
<linearGradient id="paint1_linear_15_2" x1="552.242" y1="632.201" x2="469.207" y2="458.58" gradientUnits="userSpaceOnUse">
<stop stop-color="#FA709A"/>
<stop offset="1" stop-color="#FFE13F"/>
</linearGradient>
<clipPath id="clip0_15_2">
<rect width="512" height="512" fill="white"/>
</clipPath>
<clipPath id="clip1_15_2">
<rect width="151.949" height="167.666" fill="white" transform="translate(90.6631 172.167)"/>
</clipPath>
<clipPath id="clip2_15_2">
<rect width="167.666" height="167.666" fill="white" transform="translate(253.671 172.167)"/>
</clipPath>
</defs>
</svg>
