<svg width="92" height="93" viewBox="0 0 92 93" fill="none" xmlns="http://www.w3.org/2000/svg">
<path d="M25.4728 44.7205C25.4728 44.7205 44.1008 36.8747 50.5613 34.112C53.0379 33.007 61.4366 29.4708 61.4366 29.4708C61.4366 29.4708 65.313 27.9238 64.9899 31.6809C64.8822 33.228 64.0208 38.6427 63.1595 44.4995C61.8673 52.7874 60.4675 61.8488 60.4675 61.8488C60.4675 61.8488 60.2522 64.3905 58.4217 64.8325C56.5912 65.2745 53.5762 63.2855 53.0379 62.8433C52.6071 62.5119 44.9622 57.5391 42.1626 55.108C41.4088 54.445 40.5475 53.119 42.2702 51.5719C46.1466 47.9252 50.7766 43.3945 53.5762 40.5214C54.8684 39.1953 56.1604 36.1011 50.7766 39.8583C43.1317 45.2731 35.5944 50.3563 35.5944 50.3563C35.5944 50.3563 33.8715 51.4613 30.6413 50.4667C27.4109 49.4723 23.6422 48.1462 23.6422 48.1462C23.6422 48.1462 21.0582 46.4886 25.4728 44.7205Z" fill="#006FEE"/>
</svg>
